<?xml version="1.0" standalone="no"?>
<!DOCTYPE svg PUBLIC "-//W3C//DTD SVG 20010904//EN"
 "http://www.w3.org/TR/2001/REC-SVG-20010904/DTD/svg10.dtd">
<svg version="1.0" xmlns="http://www.w3.org/2000/svg"
 width="1000.000000pt" height="1000.000000pt" viewBox="0 0 1000.000000 1000.000000"
 preserveAspectRatio="xMidYMid meet">

<g transform="translate(0.000000,1000.000000) scale(0.100000,-0.100000)"
fill="#000000" stroke="none">
<path d="M2645 9508 c-104 -106 -605 -618 -1185 -1213 -91 -93 -287 -300 -435
-460 -149 -159 -282 -301 -297 -313 l-28 -24 0 -3513 0 -3514 26 -20 27 -21
3243 0 c3239 0 3244 0 3264 20 20 20 20 30 18 941 l-3 921 -24 19 c-32 26 -73
24 -99 -4 l-22 -23 0 -862 0 -862 -3140 0 -3140 0 0 3405 0 3405 993 0 c986 0
993 0 1015 20 l22 21 0 1024 0 1025 2120 0 2120 0 0 -2769 0 -2768 21 -27 c27
-34 77 -36 107 -3 l22 23 0 2822 c0 1843 -3 2829 -10 2841 -5 10 -17 21 -26
25 -8 3 -1017 6 -2242 6 l-2226 0 -121 -122z m87 -1200 l-5 -768 -885 0 -885
0 44 48 c176 194 613 650 1118 1166 328 335 598 614 601 620 12 27 17 -357 12
-1066z"/>
<path d="M4293 9238 c-13 -6 -84 -82 -158 -169 l-136 -159 -413 0 c-387 0
-414 -1 -429 -18 -16 -17 -17 -102 -17 -1024 0 -961 1 -1006 18 -1021 17 -16
160 -17 1849 -17 l1830 0 27 21 26 20 0 998 0 998 -23 21 c-23 22 -25 22 -464
22 l-440 0 -34 38 c-19 20 -81 89 -138 152 -57 63 -112 123 -123 133 -19 16
-66 17 -687 16 -454 0 -673 -4 -688 -11z m1356 -150 c22 -24 48 -52 58 -64 37
-43 169 -189 190 -211 l22 -23 431 0 430 0 0 -920 0 -920 -1765 0 -1765 0 0
920 0 920 394 0 394 0 35 38 c47 49 80 87 180 204 l82 98 637 0 637 0 40 -42z"/>
<path d="M4870 8800 c-300 -30 -586 -235 -707 -509 -127 -286 -96 -615 82
-866 59 -83 187 -202 271 -252 246 -144 557 -161 819 -43 235 105 428 333 489
576 60 238 25 469 -102 682 -106 175 -293 319 -497 381 -58 18 -233 44 -270
39 -5 0 -44 -4 -85 -8z m280 -130 c228 -55 414 -205 515 -415 112 -236 100
-493 -35 -720 -102 -172 -320 -323 -511 -354 -137 -23 -315 -9 -419 31 -112
43 -176 85 -269 173 -168 159 -240 346 -228 589 8 156 46 270 132 391 182 256
508 378 815 305z"/>
<path d="M4855 8601 c-282 -55 -488 -243 -555 -507 -109 -424 221 -836 670
-836 367 0 663 276 687 638 20 304 -178 583 -485 681 -83 27 -242 39 -317 24z
m256 -125 c179 -38 349 -193 410 -373 33 -95 32 -250 -1 -343 -45 -128 -123
-226 -235 -295 -111 -69 -179 -88 -315 -89 -124 -1 -173 11 -280 65 -175 89
-300 292 -300 486 0 219 120 407 328 512 96 49 262 64 393 37z"/>
<path d="M3625 8606 c-48 -18 -105 -77 -105 -109 0 -74 107 -141 211 -133 132
10 218 106 163 184 -40 58 -184 89 -269 58z"/>
<path d="M1743 6100 c-12 -5 -24 -18 -28 -29 -3 -12 -11 -21 -16 -21 -5 0 -9
-7 -9 -15 0 -8 4 -15 9 -15 5 0 11 -9 14 -20 3 -11 17 -24 32 -30 39 -15 4371
-14 4430 1 28 7 47 18 50 30 4 10 11 19 16 19 19 0 8 34 -21 61 l-30 29 -2212
-1 c-1234 0 -2223 -4 -2235 -9z"/>
<path d="M9489 5865 c-90 -28 -210 -114 -315 -225 -176 -188 -3292 -3429
-3488 -3630 l-192 -195 -48 -232 c-28 -137 -46 -243 -42 -258 3 -13 18 -32 32
-42 25 -16 37 -15 252 16 125 18 248 37 275 43 57 12 -36 -83 1892 1933 752
787 1401 1464 1443 1505 92 90 499 521 516 547 7 10 27 53 44 95 65 158 52
260 -47 359 -90 90 -204 120 -322 84z m16 -380 c74 -60 134 -113 134 -118 1
-10 -756 -803 -3615 -3786 l-89 -94 -183 -27 c-100 -15 -182 -24 -182 -21 0 3
14 71 31 150 l31 145 197 205 c109 113 931 968 1827 1899 896 932 1643 1709
1659 1727 17 19 36 33 43 32 8 -1 74 -51 147 -112z"/>
<path d="M1743 5200 c-12 -5 -24 -18 -28 -29 -3 -12 -11 -21 -16 -21 -5 0 -9
-7 -9 -15 0 -8 4 -15 9 -15 5 0 11 -9 14 -20 3 -11 17 -24 32 -30 39 -15 4371
-14 4430 1 28 7 47 18 50 30 4 10 11 19 16 19 19 0 8 34 -21 61 l-30 29 -2212
-1 c-1234 0 -2223 -4 -2235 -9z"/>
<path d="M1778 4242 c-9 -4 -26 -20 -39 -36 -21 -27 -21 -30 -7 -55 9 -14 27
-32 40 -38 18 -10 493 -13 2208 -13 1207 0 2202 4 2223 9 39 9 76 44 77 73 0
9 -14 28 -31 42 l-31 26 -2211 -1 c-1217 0 -2220 -3 -2229 -7z"/>
<path d="M1762 3313 c-21 -8 -43 -61 -36 -88 15 -59 -101 -55 1715 -55 1137 0
1676 3 1696 10 28 10 53 45 53 74 0 7 -9 25 -21 40 l-20 26 -1687 -1 c-928 0
-1693 -3 -1700 -6z"/>
<path d="M1762 2343 c-21 -8 -43 -61 -36 -88 15 -59 -101 -55 1715 -55 1137 0
1676 3 1696 10 28 10 53 45 53 74 0 7 -9 25 -21 40 l-20 26 -1687 -1 c-928 0
-1693 -3 -1700 -6z"/>
<path d="M1762 1373 c-21 -8 -43 -61 -36 -88 15 -59 -101 -55 1715 -55 1137 0
1676 3 1696 10 28 10 53 45 53 74 0 7 -9 25 -21 40 l-20 26 -1687 -1 c-928 0
-1693 -3 -1700 -6z"/>
</g>
</svg>
